<?xml version="1.0" standalone="no"?><!DOCTYPE svg PUBLIC "-//W3C//DTD SVG 1.1//EN" "http://www.w3.org/Graphics/SVG/1.1/DTD/svg11.dtd"><svg t="1625022818820" class="icon" viewBox="0 0 1127 1024" version="1.1" xmlns="http://www.w3.org/2000/svg" p-id="8575" xmlns:xlink="http://www.w3.org/1999/xlink" width="220.1171875" height="200"><defs><style type="text/css"></style></defs><path d="M796.113887 283.816386h2.380012c-1.785009-18.44509-2.380012-37.485183-5.355026-55.930273-4.760023-31.535154-19.040093-58.310285-39.865195-82.110401-18.44509-20.825102-40.460198-36.89018-66.045322-47.600233-35.700174-15.470076-73.185357-22.015107-111.860547-23.205113-13.685067-0.595003-27.370134 0.595003-41.650203 1.190006-22.015107 0.595003-43.435212 4.16502-64.855317 10.115049-36.89018 10.115049-69.61534 27.370134-95.200464 56.525276-14.875073 16.660081-24.990122 35.105171-32.72516 55.33527-10.115049 24.990122-10.115049 51.765253-11.305055 77.945381-0.595003 17.850087 1.190006 36.295177 2.380011 54.145264 1.190006 14.875073 1.785009 30.345148 4.16502 45.220221 4.16502 24.990122 8.925044 49.980244 14.28007 74.970366 10.115049 48.195235 24.395119 94.605462 47.00523 138.040674 13.685067 26.180128 32.130157 47.600232 54.740267 65.45032 22.015107 17.255084 46.410227 29.750145 73.185357 37.485183 17.850087 4.760023 36.295177 7.735038 54.740268 4.760023 23.205113-4.16502 45.220221-11.900058 66.045322-23.205113 29.155142-16.660081 52.955259-39.270192 71.995352-66.640326 15.470076-22.015107 24.990122-46.410227 33.915165-71.400348 14.875073-42.245206 26.180128-85.085415 32.72516-129.115631 3.570017-26.180128 7.735038-51.765253 10.115049-77.94538 2.380012-14.28007 1.190006-29.155142 1.190006-44.030215z" fill="#72BEF7" p-id="8576"></path><path d="M425.427077 671.163277v29.155143c0 8.925044-2.380012 17.850087-7.735037 24.990122-10.710052 15.470076-25.585125 24.395119-42.84021 29.155142-30.940151 8.925044-61.880302 17.255084-92.22545 25.585125-35.700174 9.520046-71.400349 19.040093-107.100523 27.965136-12.495061 3.570017-24.990122 6.545032-38.675189 10.710053 130.305636 151.725741 293.336432 222.531087 491.4724 201.110982 147.560721-16.065078 267.751307-86.275421 362.951772-200.515979-21.420105-5.355026-41.650203-10.710052-61.880302-15.470076l-141.015688-35.700174c-21.420105-5.355026-43.435212-10.115049-63.070308-20.825102-20.825102-11.305055-33.915166-27.370134-32.130157-52.360256v-9.520046c-0.595003 0-1.190006-0.595003-1.785009-0.595003-1.785009 2.380012-3.570017 4.760023-5.355026 6.545032-20.230099 20.825102-44.030215 37.485183-70.805346 48.195235-28.560139 11.900058-57.715282 14.28007-88.06043 4.165021-30.345148-10.115049-56.525276-26.775131-79.135386-48.790239-8.925044-6.545032-14.875073-14.875073-22.610111-23.800116z" fill="#72BEF7" p-id="8577"></path><path d="M1126.935503 990.084834H993.654852v-32.725159h101.150494V856.804184h32.72516v133.28065z m-998.414875 0H0v-130.900639h32.72516v98.17548h95.795468v32.725159zM32.72516 130.305636H0V0h132.685648v32.72516H32.72516v97.580476z m1094.210343-1.190006h-32.72516V32.72516h-102.3405V0h135.06566v129.11563zM207.656014 16.065078h714.003486v2.975015h-714.003486zM1010.909936 487.307379h-892.504358l-59.50029-4.760023 59.50029-4.16502h892.504358l59.500291 4.16502zM207.656014 973.424753h714.003486v2.975015h-714.003486zM17.052783 815.332481V198.909471h2.975015v616.42301zM1111.275026 815.344381v-616.42301h2.975015v616.42301z" fill="#2F90E9" p-id="8578"></path></svg>