<?xml version="1.0" standalone="no"?><!DOCTYPE svg PUBLIC "-//W3C//DTD SVG 1.1//EN" "http://www.w3.org/Graphics/SVG/1.1/DTD/svg11.dtd"><svg class="icon" width="200px" height="200.00px" viewBox="0 0 1024 1024" version="1.1" xmlns="http://www.w3.org/2000/svg"><path fill="#707070" d="M727.2 1024h73.1v-36.5C804 815.8 698 669.6 548.2 611.1c65.8-47.5 109.6-124.2 109.6-208.3C657.8 260.3 544.5 147 402 147S146.2 260.3 146.2 402.8c0 87.7 43.9 164.4 109.6 208.3C106 669.5 0 815.7 0 987.5v36.5h73.1"  /><path fill="#707070" d="M818.5 574.5C855 541.6 877 494.1 877 439.3c0-91.4-65.8-168.1-153.5-179.1l-11 73.1c51.2 7.3 91.4 54.8 91.4 109.6 0 62.1-47.5 109.6-109.6 109.6v73.1c142.5 0 255.8 113.3 255.8 255.8 0 11 0 25.6-3.7 36.5h73.1c0-11 3.7-25.6 3.7-36.5 0-142.4-84.1-259.4-204.7-306.9z m0 0"  /></svg>