<?xml version="1.0" standalone="no"?><!DOCTYPE svg PUBLIC "-//W3C//DTD SVG 1.1//EN" "http://www.w3.org/Graphics/SVG/1.1/DTD/svg11.dtd"><svg t="1624940339025" class="icon" viewBox="0 0 1024 1024" version="1.1" xmlns="http://www.w3.org/2000/svg" p-id="5945" xmlns:xlink="http://www.w3.org/1999/xlink" width="200" height="200"><defs><style type="text/css"></style></defs><path d="M512 0a64 64 0 0 1 51.2 102.4L672 320H960a64 64 0 0 1 64 64v576a64 64 0 0 1-64 64H64a64 64 0 0 1-64-64V384a64 64 0 0 1 64-64h288l108.8-217.6A64 64 0 0 1 512 0z m448 384H64v576h896V384z m-224 384a32 32 0 1 1 0 64h-448a32 32 0 1 1 0-64h448z m-256-128a32 32 0 1 1 0 64h-192a32 32 0 1 1 0-64h192z m256-128a32 32 0 1 1 0 64h-448a32 32 0 0 1 0-64h448zM512 143.104L423.552 320h176.832L512 143.104z" p-id="5946" fill="#8a8a8a"></path></svg>