<?xml version="1.0" standalone="no"?><!DOCTYPE svg PUBLIC "-//W3C//DTD SVG 1.1//EN" "http://www.w3.org/Graphics/SVG/1.1/DTD/svg11.dtd"><svg class="icon" width="200px" height="200.00px" viewBox="0 0 1024 1024" version="1.1" xmlns="http://www.w3.org/2000/svg"><path d="M433.493333 138.24c25.6 0 51.2 5.12 76.8 17.066667 95.573333 42.666667 138.24 153.6 95.573334 249.173333-18.773333 42.666667-52.906667 76.8-95.573334 95.573333-17.066667 6.826667-25.6 27.306667-18.773333 44.373334 3.413333 8.533333 11.946667 15.36 20.48 18.773333 119.466667 34.133333 204.8 138.24 213.333333 262.826667H141.653333C150.186667 701.44 235.52 597.333333 353.28 563.2c18.773333-5.12 27.306667-25.6 22.186667-42.666667-3.413333-10.24-10.24-17.066667-18.773334-20.48-95.573333-42.666667-138.24-153.6-95.573333-249.173333 30.72-71.68 100.693333-112.64 172.373333-112.64m0-51.2c-95.573333 0-180.906667 56.32-220.16 143.36-47.786667 109.226667-8.533333 235.52 88.746667 298.666667-119.466667 49.493333-201.386667 163.84-211.626667 293.546666l-3.413333 54.613334H779.946667l-3.413334-54.613334c-10.24-129.706667-92.16-244.053333-211.626666-293.546666 39.253333-25.6 69.973333-61.44 88.746666-104.106667 25.6-58.026667 27.306667-124.586667 5.12-184.32-23.893333-59.733333-68.266667-107.52-126.293333-133.12-32.426667-13.653333-64.853333-20.48-98.986667-20.48z" fill="#154E84" /><path d="M433.493333 455.68c-69.973333 0-128-58.026667-128-128 0-10.24 6.826667-17.066667 17.066667-17.066667s17.066667 6.826667 17.066667 17.066667c0 51.2 42.666667 93.866667 93.866666 93.866667s93.866667-42.666667 93.866667-93.866667c0-10.24 6.826667-17.066667 17.066667-17.066667s17.066667 6.826667 17.066666 17.066667c0 69.973333-58.026667 128-128 128z" fill="#52ABE2" /><path d="M820.906667 919.893333c-5.12-1.706667-8.533333-3.413333-13.653334-5.12l-68.266666-35.84-68.266667 35.84c-5.12 3.413333-11.946667 5.12-18.773333 5.12-15.36 0-27.306667-8.533333-34.133334-20.48-3.413333-6.826667-5.12-17.066667-3.413333-25.6l13.653333-76.8-56.32-54.613333c-6.826667-6.826667-11.946667-17.066667-11.946666-27.306667s3.413333-20.48 11.946666-27.306666c6.826667-6.826667 13.653333-10.24 22.186667-11.946667l76.8-11.946667 34.133333-69.973333c6.826667-13.653333 20.48-22.186667 35.84-22.186667 15.36 0 29.013333 8.533333 35.84 22.186667l34.133334 69.973333 76.8 11.946667c10.24 1.706667 18.773333 6.826667 25.6 15.36s8.533333 18.773333 6.826666 29.013333c-1.706667 8.533333-5.12 17.066667-11.946666 22.186667L853.333333 797.013333l13.653334 76.8c1.706667 10.24 0 20.48-6.826667 29.013334s-15.36 13.653333-25.6 15.36h-6.826667l-6.826666 1.706666z" fill="#FFC200" /><path d="M738.986667 590.506667s1.706667 0 0 0c8.533333 0 17.066667 5.12 20.48 11.946666l37.546666 78.506667 85.333334 11.946667c11.946667 1.706667 20.48 13.653333 18.773333 25.6 0 5.12-3.413333 8.533333-6.826667 11.946666l-61.44 59.733334 15.36 85.333333c1.706667 11.946667-6.826667 23.893333-18.773333 25.6h-3.413333c-3.413333 0-6.826667-1.706667-10.24-3.413333l-76.8-40.96-76.8 40.96c-3.413333 1.706667-6.826667 1.706667-10.24 1.706666-8.533333 0-15.36-5.12-20.48-11.946666-1.706667-5.12-3.413333-8.533333-1.706667-13.653334l15.36-85.333333-61.44-59.733333c-8.533333-8.533333-8.533333-22.186667 0-30.72 3.413333-3.413333 8.533333-5.12 11.946667-6.826667l85.333333-11.946667 37.546667-78.506666c5.12-6.826667 13.653333-10.24 20.48-10.24m1.706666-34.133334c-22.186667 0-40.96 11.946667-51.2 30.72L658.773333 648.533333l-68.266666 10.24c-11.946667 1.706667-23.893333 6.826667-32.426667 17.066667-10.24 10.24-17.066667 25.6-15.36 39.253333 0 15.36 6.826667 29.013333 17.066667 39.253334l49.493333 47.786666-11.946667 68.266667c-1.706667 11.946667 0 25.6 5.12 35.84 10.24 18.773333 29.013333 30.72 49.493334 30.72 8.533333 0 18.773333-1.706667 25.6-6.826667l61.44-32.426666 61.44 32.426666c5.12 1.706667 8.533333 3.413333 13.653333 5.12l1.706667 1.706667h18.773333c15.36-1.706667 27.306667-10.24 35.84-22.186667s11.946667-27.306667 10.24-42.666666L870.4 802.133333l49.493333-47.786666c8.533333-8.533333 15.36-20.48 17.066667-32.426667 5.12-30.72-17.066667-59.733333-47.786667-63.146667l-68.266666-10.24-30.72-61.44c-8.533333-18.773333-29.013333-30.72-49.493334-30.72z" fill="#154E84" /></svg>