<?xml version="1.0" standalone="no"?><!DOCTYPE svg PUBLIC "-//W3C//DTD SVG 1.1//EN" "http://www.w3.org/Graphics/SVG/1.1/DTD/svg11.dtd"><svg class="icon" width="200px" height="200.00px" viewBox="0 0 1024 1024" version="1.1" xmlns="http://www.w3.org/2000/svg"><path fill="#707070" d="M512.977 627.224c-122.736 0-222.607-99.844-222.607-222.606 0-122.76 99.87-222.607 222.607-222.607 122.742 0 222.606 99.846 222.606 222.607 0 122.735-99.864 222.606-222.606 222.606z m0-404.129c-100.07 0-181.516 81.455-181.516 181.523 0 100.108 81.446 181.522 181.516 181.522 100.067 0 181.522-81.414 181.522-181.522 0-100.068-81.41-181.523-181.522-181.523z m260.806 607.88c-6.98-102.88-74.11-192.238-171.127-227.665l14.123-38.595c112.226 41.003 189.94 144.446 198.048 263.487l-41.044 2.773z m-521.689 1.18l-41.01-2.57c7.584-119.847 85.423-223.83 198.334-264.916l14.045 38.605c-97.58 35.488-164.829 125.366-171.369 228.88zM23.707 295.68c-11.396 0-20.543-9.192-20.543-20.544V53.914c0-11.352 9.147-20.542 20.543-20.542h215.146c11.352 0 20.544 9.19 20.544 20.542 0 11.36-9.19 20.544-20.544 20.544H44.25v200.68c0 11.352-9.187 20.542-20.544 20.542z m978.501 0c-11.358 0-20.542-9.192-20.542-20.544V74.458H766.762c-11.316 0-20.542-9.183-20.542-20.544 0-11.352 9.226-20.542 20.542-20.542h235.448c11.352 0 20.542 9.19 20.542 20.542v221.224c-0.002 11.352-9.192 20.542-20.544 20.542z m-763.355 704.35H23.707a20.488 20.488 0 0 1-20.543-20.54V765.994c0-11.357 9.147-20.542 20.543-20.542 11.357 0 20.544 9.185 20.544 20.542V958.95h194.602c11.352 0 20.544 9.192 20.544 20.54-0.002 11.38-9.23 20.542-20.544 20.542z m763.355 0H766.762c-11.316 0-20.542-9.162-20.542-20.542 0-11.348 9.226-20.54 20.542-20.54h214.904V765.994c0-11.357 9.184-20.542 20.542-20.542 11.352 0 20.542 9.185 20.542 20.542V979.49c0 11.38-9.19 20.542-20.542 20.542z" /></svg>