<?xml version="1.0" standalone="no"?><!DOCTYPE svg PUBLIC "-//W3C//DTD SVG 1.1//EN" "http://www.w3.org/Graphics/SVG/1.1/DTD/svg11.dtd"><svg class="icon" width="200px" height="200.00px" viewBox="0 0 1024 1024" version="1.1" xmlns="http://www.w3.org/2000/svg"><path fill="#707070" d="M192 192l575.999 0 0 64L192 256 192 192zM192 319.999l575.999 0 0 64L192 383.999 192 319.999zM192 447.999l255.999 0 0 64L192 511.999 192 447.999zM703.998 877.248 553.374 726.623l45.25-45.25 105.375 105.375 169.375-169.375 45.25 45.25L703.998 877.248zM64 0C28.655 0 0 28.655 0 64l0 895.998 319.999-319.999-90 0L64 805.748 64 64l767.998 0 0 319.999 64 0L895.998 64c0-35.345-28.655-64-64-64L64 0zM735.998 511.999c59.83 0 116.08 23.3 158.39 65.61 42.315 42.31 65.61 98.56 65.61 158.39 0 59.83-23.3 116.08-65.61 158.39-42.31 42.315-98.56 65.61-158.39 65.61-59.83 0-116.085-23.3-158.39-65.61-42.31-42.31-65.61-98.56-65.61-158.39 0-59.83 23.3-116.08 65.61-158.39C619.913 535.299 676.168 511.999 735.998 511.999M735.998 447.999c-159.06 0-288 128.94-288 287.999s128.94 287.999 288 287.999 287.999-128.94 287.999-287.999S895.058 447.999 735.998 447.999L735.998 447.999z" /></svg>