<?xml version="1.0" standalone="no"?><!DOCTYPE svg PUBLIC "-//W3C//DTD SVG 1.1//EN" "http://www.w3.org/Graphics/SVG/1.1/DTD/svg11.dtd"><svg class="icon" width="200px" height="200.00px" viewBox="0 0 1024 1024" version="1.1" xmlns="http://www.w3.org/2000/svg"><path fill="#8a8a8a" d="M511.947814 0a512 512 0 1 0 512.052186 512A512.052186 512.052186 0 0 0 511.947814 0z m0 987.469575a475.469575 475.469575 0 1 1 475.521761-475.469575 475.469575 475.469575 0 0 1-475.521761 475.469575zM312.126389 347.926205a171.640811 171.640811 0 1 0 343.229436 0 171.640811 171.640811 0 0 0-343.229436 0zM678.056875 807.79207a131.822648 131.822648 0 1 1 131.770462-131.822648 131.979207 131.979207 0 0 1-131.770462 131.822648z m-19.100194-231.185404a101.137091 101.137091 0 1 0 19.935175-1.826521 15.290592 15.290592 0 0 1 6.418918 12.420344v73.373968h38.200387a15.290592 15.290592 0 1 1 0 30.581185h-68.833758v-103.955153a15.081847 15.081847 0 0 1 4.279278-10.593823zM531.256753 673.203547a139.076547 139.076547 0 0 1 117.106105-137.302212 282.223627 282.223627 0 0 0-31.624911-24.11008 210.363062 210.363062 0 0 1-264.58465 0 274.030374 274.030374 0 0 0-124.307817 211.719906A1016.954847 1016.954847 0 0 0 357.006625 730.608501h186.461727a138.293752 138.293752 0 0 1-12.211599-57.404954z" /></svg>